<svg width="15" height="16" viewBox="0 0 15 16" fill="none" xmlns="http://www.w3.org/2000/svg">
<g id="Bag 2">
<g id="Group 3">
<mask id="mask0_1889_1423" style="mask-type:luminance" maskUnits="userSpaceOnUse" x="4" y="0" width="7" height="7">
<path id="Clip 2" fill-rule="evenodd" clip-rule="evenodd" d="M4.0083 0H10.9791V6.38907H4.0083V0Z" fill="white"/>
</mask>
<g mask="url(#mask0_1889_1423)">
<path id="Fill 1" fill-rule="evenodd" clip-rule="evenodd" d="M10.4022 6.389C10.0837 6.389 9.82528 6.13053 9.82528 5.81207V3.47974C9.82528 2.19742 8.78297 1.15356 7.50064 1.15356C6.87679 1.1751 6.29217 1.39049 5.85063 1.82741C5.40908 2.26511 5.16447 2.84742 5.16216 3.4682V5.81207C5.16216 6.13053 4.90369 6.389 4.58523 6.389C4.26676 6.389 4.0083 6.13053 4.0083 5.81207V3.47974C4.01215 2.53434 4.37754 1.66203 5.03831 1.00817C5.69832 0.353552 6.58448 0.0266258 7.50295 -0.000297546C9.41913 -0.000297546 10.9791 1.56126 10.9791 3.47974V5.81207C10.9791 6.13053 10.7207 6.389 10.4022 6.389Z" fill="white"/>
</g>
</g>
<g id="Group 6">
<mask id="mask1_1889_1423" style="mask-type:luminance" maskUnits="userSpaceOnUse" x="0" y="3" width="15" height="13">
<path id="Clip 5" fill-rule="evenodd" clip-rule="evenodd" d="M0 3.44204H15V15.3845H0V3.44204Z" fill="white"/>
</mask>
<g mask="url(#mask1_1889_1423)">
<path id="Fill 4" fill-rule="evenodd" clip-rule="evenodd" d="M3.85235 4.5959C2.36464 4.5959 1.15386 5.80514 1.15386 7.29208V11.5352C1.15386 13.0214 2.36464 14.2306 3.85235 14.2306H11.1478C12.6355 14.2306 13.8463 13.0214 13.8463 11.5352V7.29208C13.8463 5.80514 12.6355 4.5959 11.1478 4.5959H3.85235ZM11.1478 15.3845H3.85235C1.72848 15.3845 0 13.6575 0 11.5352V7.29208C0 5.16898 1.72848 3.44204 3.85235 3.44204H11.1478C13.2724 3.44204 15.0002 5.16898 15.0002 7.29208V11.5352C15.0002 13.6575 13.2724 15.3845 11.1478 15.3845Z" fill="white"/>
</g>
</g>
</g>
</svg>
