<svg width="58" height="15" viewBox="0 0 58 15" fill="none" xmlns="http://www.w3.org/2000/svg">
<path d="M3.98 15H1.2V5.4H3.98V15ZM4.22 2.22C4.22 2.74 4.06667 3.13333 3.76 3.4C3.45333 3.66667 3.06 3.8 2.58 3.8C2.11333 3.8 1.72667 3.66667 1.42 3.4C1.11333 3.13333 0.96 2.74 0.96 2.22C0.96 1.71333 1.11333 1.32667 1.42 1.06C1.72667 0.793333 2.11333 0.66 2.58 0.66C3.04667 0.66 3.43333 0.793333 3.74 1.06C4.06 1.32667 4.22 1.71333 4.22 2.22ZM6.09531 0.999999H12.2153C13.7486 0.999999 14.9353 1.3 15.7753 1.9C16.6286 2.48667 17.0553 3.36667 17.0553 4.54C17.0553 6.1 16.3486 7.12 14.9353 7.6C15.7086 7.82667 16.3486 8.22667 16.8553 8.8C17.362 9.36 17.6153 10.12 17.6153 11.08C17.6153 11.84 17.4486 12.4933 17.1153 13.04C16.782 13.5733 16.3286 13.9733 15.7553 14.24C15.1953 14.5067 14.6153 14.7 14.0153 14.82C13.4286 14.94 12.7953 15 12.1153 15H6.09531V0.999999ZM14.6153 10.76C14.6153 9.56 13.822 8.96 12.2353 8.96H9.07531V12.56H12.0753C12.862 12.56 13.482 12.4333 13.9353 12.18C14.3886 11.9267 14.6153 11.4533 14.6153 10.76ZM14.0753 5.06C14.0753 3.99333 13.3686 3.46 11.9553 3.46H9.09531V6.66H12.1153C12.702 6.66 13.1753 6.52667 13.5353 6.26C13.8953 5.98 14.0753 5.58 14.0753 5.06ZM20.417 15H17.317L23.037 0.999999H26.277L31.977 15H28.877L27.857 12.38H21.457L20.417 15ZM24.337 4.88L22.397 9.9H26.917L24.957 4.88C24.8237 4.50667 24.7237 4.14 24.657 3.78C24.577 4.19333 24.4704 4.56 24.337 4.88ZM43.0422 15H32.0822V12.84L38.8422 3.7H32.3822V0.999999H42.8022V3.16L36.0222 12.3H43.0422V15ZM46.2873 15H43.1873L48.9073 0.999999H52.1473L57.8473 15H54.7473L53.7273 12.38H47.3273L46.2873 15ZM50.2073 4.88L48.2673 9.9H52.7873L50.8273 4.88C50.694 4.50667 50.594 4.14 50.5273 3.78C50.4473 4.19333 50.3407 4.56 50.2073 4.88Z" fill="white"/>
</svg>
