<svg width="51" height="38" viewBox="0 0 51 38" fill="none" xmlns="http://www.w3.org/2000/svg">
<rect width="51" height="38" rx="19" fill="#292A2E"/>
<mask id="mask0_1538_2550" style="mask-type:luminance" maskUnits="userSpaceOnUse" x="22" y="11" width="7" height="7">
<path fill-rule="evenodd" clip-rule="evenodd" d="M22.0085 11H28.9793V17.3891H22.0085V11Z" fill="white"/>
</mask>
<g mask="url(#mask0_1538_2550)">
<path fill-rule="evenodd" clip-rule="evenodd" d="M28.4024 17.3891C28.0839 17.3891 27.8254 17.1306 27.8254 16.8121V14.4798C27.8254 13.1975 26.7831 12.1536 25.5008 12.1536C24.8769 12.1752 24.2923 12.3905 23.8508 12.8275C23.4092 13.2652 23.1646 13.8475 23.1623 14.4683V16.8121C23.1623 17.1306 22.9038 17.3891 22.5854 17.3891C22.2669 17.3891 22.0085 17.1306 22.0085 16.8121V14.4798C22.0123 13.5344 22.3777 12.6621 23.0385 12.0082C23.6985 11.3536 24.5846 11.0267 25.5031 10.9998C27.4193 10.9998 28.9793 12.5613 28.9793 14.4798V16.8121C28.9793 17.1306 28.7208 17.3891 28.4024 17.3891Z" fill="white"/>
</g>
<mask id="mask1_1538_2550" style="mask-type:luminance" maskUnits="userSpaceOnUse" x="18" y="14" width="15" height="13">
<path fill-rule="evenodd" clip-rule="evenodd" d="M18 14.4421H33V26.3846H18V14.4421Z" fill="white"/>
</mask>
<g mask="url(#mask1_1538_2550)">
<path fill-rule="evenodd" clip-rule="evenodd" d="M21.8521 15.596C20.3644 15.596 19.1537 16.8052 19.1537 18.2922V22.5353C19.1537 24.0215 20.3644 25.2307 21.8521 25.2307H29.1476C30.6353 25.2307 31.8461 24.0215 31.8461 22.5353V18.2922C31.8461 16.8052 30.6353 15.596 29.1476 15.596H21.8521ZM29.1476 26.3846H21.8521C19.7283 26.3846 17.9998 24.6576 17.9998 22.5353V18.2922C17.9998 16.1691 19.7283 14.4421 21.8521 14.4421H29.1476C31.2722 14.4421 33 16.1691 33 18.2922V22.5353C33 24.6576 31.2722 26.3846 29.1476 26.3846Z" fill="white"/>
</g>
</svg>
